<svg xmlns="http://www.w3.org/2000/svg" width="134" height="38" viewBox="0 0 134 38">
  <g fill="#AFA5A5" fill-rule="evenodd">
    <path d="M112.285581 37.3878833C118.001042 37.008675 122.832263 34.9170917 126.720671 31.1170917 131.042371 26.891175 133.203222 21.5593 133.203222 15.1167167 133.203222 9.24334167 131.506156 4.20596667 127.874515.204883333 127.766994.086925 127.588862-.000158333334 127.41715-.000158333334 127.094587-.000158333334 126.826587.261883333 126.826587.584091667 126.826587.6403 126.833006.694133333 126.848251.7448 129.525844 7.848425 127.96679 14.9853 123.240683 16.8726333 119.930802 18.1955083 115.919629 16.5995083 112.75418 13.1383417 112.514263 12.9048 112.112263 12.8984667 111.872347 13.1328 111.657305 13.344175 111.637246 13.6774667 111.812168 13.9133833 111.812168 13.9133833 111.877162 13.985425 111.879569 13.9870083 114.613329 17.0317583 116.011904 20.8056333 116.011904 25.2350083 116.011904 29.655675 114.633389 33.3717583 111.881174 36.3800917 111.766431 36.486175 111.694216 36.6373833 111.694216 36.8052167 111.694216 37.1266333 111.960611 37.3878833 112.285581 37.3878833M59.6475725 22.9678333C59.0891054 23.2377917 57.8453928 23.372375 56.3441114 23.372375L55.2167461 23.372375 55.2167461 16.5141667 56.1066024 16.5141667C57.5589377 16.5141667 58.812279 16.627375 59.4429617 16.8569583 60.0696323 17.08575 60.5526743 17.4768333 60.9001114 18.0302083 61.2459437 18.58675 61.4192611 19.2058333 61.4192611 19.8898333 61.4192611 20.584125 61.2643988 21.2047917 60.9530695 21.7486667 60.6409377 22.2925417 60.2060395 22.6986667 59.6475725 22.9678333L59.6475725 22.9678333zM67.9876683 35.4080833C67.5078359 34.7264583 66.8771533 33.7091667 66.0835844 32.3554167 64.8262311 30.20525 63.8505186 28.6987083 63.1580515 27.8334167 62.464782 26.9720833 61.7514527 26.2872917 61.0260874 25.7861667 62.261776 25.2858333 63.4244467 24.5305833 64.0856204 23.5188333 64.7475964 22.5062917 65.0773808 21.3077083 65.0773808 19.9183333 65.0773808 17.8821667 64.4009617 16.2671667 63.0521353 15.0725417 61.703309 13.8795 59.6644228 13.281 57.3671653 13.281L51.6733689 13.281 51.6733689 37.1157083 55.2167461 37.1157083 55.2167461 26.7425 55.4711054 26.7425C56.5358838 26.7425 57.2909377 26.8691667 57.7418838 27.1256667 58.1920275 27.3821667 58.6959317 27.799375 59.2560036 28.3780833 59.8136683 28.956 60.428303 29.7357917 61.1007102 30.7142917L62.1903629 32.5770833 63.1973689 34.3155833 63.8312611 35.2552917C63.9267461 35.3914583 63.9925425 35.4864583 64.0246383 35.5450417L65.0155964 37.1157083 69.1928659 37.1157083 67.9876683 35.4080833z"/>
    <polygon points="72.14 13.281 84.258 13.281 84.258 16.645 75.728 16.645 75.728 22.656 84.258 22.656 84.258 26.008 75.728 26.008 75.728 37.115 72.14 37.115"/>
    <path d="M41.775824 31.6603333C40.1469617 33.40675 38.115297 34.2799583 35.6792251 34.2799583 33.2551892 34.2799583 31.2347581 33.4217917 29.6227461 31.7102083 28.0099317 30.0002083 27.2011174 27.854 27.2011174 25.2739583 27.2011174 22.617125 28.0059198 20.4313333 29.6131174 18.7189583 31.2243269 17.007375 33.2768539 16.152375 35.7731054 16.152375 38.145788 16.152375 40.1469617 17.016875 41.775824 18.7435 43.4054886 20.4740833 44.2191174 22.6060417 44.2191174 25.139375 44.2191174 27.7407917 43.4054886 29.913125 41.775824 31.6603333M44.4149018 16.437375C42.0783269 14.1059167 39.156806 12.9405833 35.6463269 12.9405833 32.1358479 12.9405833 29.232782 14.1059167 26.9331174 16.437375 24.6374647 18.769625 23.4892371 21.714625 23.4892371 25.2739583 23.4892371 28.744625 24.6278359 31.63025 26.9114527 33.9355833 29.1918599 36.2361667 32.0435725 37.3888333 35.4673928 37.3888333 39.053297 37.3888333 42.0261713 36.2361667 44.382806 33.9355833 46.7394407 31.63025 47.9181593 28.7216667 47.9181593 25.2066667 47.9181593 21.6916667 46.7506743 18.769625 44.4149018 16.437375M105.808005 31.6603333C104.176735 33.40675 102.147478 34.2799583 99.711406 34.2799583 97.2865677 34.2799583 95.2685437 33.4217917 93.6525198 31.7102083 92.0421126 30.0002083 91.234903 27.854 91.234903 25.2739583 91.234903 22.617125 92.038903 20.4313333 93.6461006 18.7189583 95.254903 17.007375 97.3082323 16.152375 99.8052862 16.152375 102.178771 16.152375 104.176735 17.016875 105.808005 18.7435 107.436867 20.4740833 108.252101 22.6060417 108.252101 25.139375 108.252101 27.7407917 107.436867 29.913125 105.808005 31.6603333M108.447083 16.437375C106.112113 14.1059167 103.188987 12.9405833 99.6777054 12.9405833 96.1656216 12.9405833 93.2633581 14.1059167 90.9652982 16.437375 88.6680407 18.769625 87.5222204 21.714625 87.5222204 25.2739583 87.5222204 28.744625 88.6600168 31.63025 90.9420287 33.9355833 93.2240407 36.2361667 96.0749509 37.3888333 99.4987713 37.3888333 103.08628 37.3888333 106.05755 36.2361667 108.414987 33.9355833 110.770017 31.63025 111.949538 28.7216667 111.949538 25.2066667 111.949538 21.6916667 110.78125 18.769625 108.447083 16.437375M20.1585749 31.6603333C18.3082515 33.40675 15.9973533 34.2799583 13.2306946 34.2799583 10.4752695 34.2799583 8.18122156 33.4217917 6.3485509 31.7102083 4.51507784 30.0002083 3.59794012 27.854 3.59794012 25.2739583 3.59794012 22.617125 4.51267066 20.4313333 6.33892216 18.7189583 8.16677844 17.007375 10.4977365 16.152375 13.3382156 16.152375 16.0350659 16.152375 18.3082515 17.016875 20.1585749 18.7435 20.1778323 18.7640833 20.1970898 18.7830833 20.2179521 18.8020833L20.2179521 18.603375 20.2179521 15.278375 20.2179521 14.9347917C17.3004431 13.62775 14.6485269 12.9730417 12.2654132 12.9730417 8.80307784 12.9730417 5.89760479 14.1565833 3.53695808 16.522875 1.18032335 18.8875833 0 21.8056667 0 25.2739583 0 27.4581667.516742515 29.488 1.54541317 31.36425 2.57568862 33.242875 3.97586826 34.7161667 5.74274251 35.7857083 7.50961677 36.8536667 9.66164072 37.3888333 12.1996168 37.3888333 15.3209341 37.3888333 18.0771617 36.7072083 20.4602754 35.3415833L20.4602754 35.00275 20.4602754 31.5859167 20.4602754 31.3721667C20.4514491 31.3792917 20.4426228 31.3840417 20.4313892 31.390375 20.3423234 31.4798333 20.2524551 31.5716667 20.1585749 31.6603333M124.096196 7.90297083C123.264915 7.07567917 122.224208 6.65847083 120.977286 6.65847083 119.726352 6.65847083 118.693669 7.07567917 117.876029 7.90297083 117.059993 8.7326375 116.650771 9.7823875 116.650771 11.0466792 116.650771 12.2824708 117.055981 13.3092625 117.8664 14.1286375 118.677622 14.9495958 119.695861 15.3580958 120.913095 15.3580958 122.188101 15.3580958 123.245657 14.9495958 124.084963 14.1286375 124.922663 13.3092625 125.342316 12.2737625 125.342316 11.0245125 125.342316 9.77367917 124.927478 8.7326375 124.096196 7.90297083"/>
  </g>
</svg>
