<svg xmlns="http://www.w3.org/2000/svg" width="87" height="27" viewBox="0 0 87 27">
  <g fill="#AFA5A5" fill-rule="evenodd">
    <path d="M.0670896476 8.84254821C.0287636564 13.7024518.0000191629956 19.6907625.0000191629956 22.1496911L.0000191629956 26.6143339 2.29957863 26.6143339 4.59913811 26.6143339 4.59913811 24.3675482C4.59913811 23.1236196 4.6278826 20.6068339 4.66620859 18.7746911L4.72369758 15.4381661 10.3192923 15.4961196 15.9053055 15.5539768 15.9053055 13.5289768 15.9053055 11.5039768 11.9577284 11.4461196C9.78272841 11.4075482 7.253213 11.3786196 6.3525522 11.3786196L4.69495308 11.3786196 4.69495308 7.80111964 4.69495308 4.2332625 10.6833892 4.26219107 16.6718253 4.29111964 16.6718253 2.2082625 16.6718253.125405357 11.718191.0675482143C8.9874641.0289767857 5.26026145.0000482142857 3.43977687.0000482142857L.124578634.0000482142857.0670896476 8.84254821zM20.7535338 4.55147679C20.7247893 7.01040536 20.6864633 12.9986196 20.6673003 17.8586196L20.6385558 26.7107625 22.9668598 26.7107625 25.2951638 26.7107625 25.2951638 22.8246911C25.2951638 20.6839768 25.3239083 14.6957625 25.3622343 9.51754821L25.4197232.0964767857 23.1201638.0964767857 20.8110228.0964767857 20.7535338 4.55147679zM30.9099215 6.76933393C30.8715955 10.3950482 30.8332695 16.3639768 30.823688 20.0379054L30.804525 26.7107625 31.9543047 26.7107625C32.5866836 26.7107625 33.5927409 26.7396911 34.1867937 26.7782625L35.2599215 26.8361196 35.269503 18.6493339C35.2790845 14.1461196 35.3174105 9.40183393 35.346155 8.10004821L35.4036439 5.73754821 38.8913091 15.6214768C40.8076087 21.0600482 42.4843708 25.7946911 42.6185118 26.1514768L42.8484677 26.8071911 44.4964854 26.8071911 46.1349215 26.8071911 49.8046351 16.8461196C51.8263312 11.3786196 53.5893268 6.63433393 53.7138862 6.31611964L53.9438422 5.73754821 53.8767717 16.3157625 53.8192827 26.9036196 56.1188422 26.9036196 58.4184017 26.9036196 58.4758906 19.0736196C58.5142166 14.7729054 58.5429611 8.78459464 58.5429611 5.76647679L58.5429611.289333929 54.9307365.308619643 51.3089303.337548214 48.012895 9.66219107C46.1924105 14.7921911 44.6881153 18.9675482 44.6689523 18.9482625 44.6402078 18.9289768 43.1646572 14.7054054 41.3824986 9.57540536L38.1535338.241119643 34.5604721.212191071 30.9674105.192905357 30.9099215 6.76933393zM75.8662804 11.4943339C76.882015 14.3196911 77.705928 16.6629054 77.705928 16.7014768 77.705928 16.7496911 75.9812584 16.7786196 73.8733289 16.7786196 71.7653993 16.7786196 70.0407297 16.7496911 70.0407297 16.7014768 70.0407297 16.5664768 73.9117507 6.36433393 73.9691438 6.36433393 73.9978883 6.36433393 74.8506416 8.67861964 75.8662804 11.4943339L75.8662804 11.4943339zM66.4955756 13.5578089C63.4103333 20.8093339 60.8809137 26.7782625 60.8616548 26.8167375 60.8424919 26.8649518 62.0018531 26.9036196 63.4486593 26.9036196L66.0644081 26.9036196 67.2237694 23.8950482 68.3831306 20.8863804 73.8350029 20.9154054C78.3192396 20.9345946 79.3060381 20.9539768 79.3732044 21.0696911 79.4305976 21.1371911 79.9671615 22.4968339 80.5803773 24.0782625L81.6918311 26.9518339 84.3555833 26.9807625C86.4729985 27.0000482 87.0095623 26.9807625 86.9712363 26.8843339 86.9520733 26.8167375 84.4993057 20.8286196 81.5290414 13.5675482L76.1345623.3857625 74.1128663.3857625 72.1007518.3857625 66.4955756 13.5578089z"/>
  </g>
</svg>
