<svg xmlns="http://www.w3.org/2000/svg" width="52" height="53" viewBox="0 0 52 53">
    <g fill="none" fill-rule="evenodd">
        <path fill="#FFF" d="M27.034 51.869c-.08.023-.247-.04-.256-.095-.113-.727-.306-1.47-.267-2.188.026-.5.386-.962.581-1.452.469-1.173 1.29-1.855 2.037-2.64.09-.096.206-.164.272-.283.073-.132.086-.17.141-.32.029-.077.022-.273-.059-.286-.143-.022-.29-.05-.403.017-.394.236-.76.555-1.139.836-.027.02-.054.039-.082.057-.115.076-.252-.06-.18-.177l1.099-1.764c.065-.104.152-.194.19-.313.03-.091.047-.187.061-.284.032-.217-.12-.428-.34-.44-.048-.003-.094.005-.136.03-.24.144-.435.425-.643.658-.408.456-.803.935-1.223 1.37-.108.113-.245.174-.413.255-.09.044-.193-.027-.185-.126.079-.945.148-1.788.22-2.632.018-.211.083-.43.056-.63.038-.272-.105-.592-.24-.592-.095-.031-.474.002-.574.186-.235.437-.332.977-.458 1.487-.126.513-.196 1.05-.325 1.56-.044.171-.195.41-.295.409-.118-.002-.29-.203-.34-.37-.239-.807-.464-1.623-.653-2.453-.105-.463-.274-.732-.642-.644-.382.091-.47.502-.427.928.023.23.048.459.074.688-.07 1.155 1.06 3.682-.852 3.42-.956-.086-1.651-1.83-2.868-1.306-.087 0-.087.348 0 .522.956 1.133 1.738 2.092 2.623 3.187.168.21.336.422.503.636.53.678.826 1.518.777 2.541-.017.354-.095.549-.378.529"/>
        <path fill="#FFF" d="M14.561 46.634c1.016.951 3.105 1.124 3.82.725.714-.4.432-1.58-1.233-2.169-1.823-.645-3.82-.725-3.82-.725s.018 1.03 1.233 2.17m8.522-7.698c.396.815 1.426.929 1.831.567.407-.362.407-1.39-.36-1.876-.839-.533-1.832-.567-1.832-.567s-.114.9.36 1.876m5.445-4.315c-.39.257-.379.79-.167.973.212.183.738.114.935-.31.216-.464.167-.974.167-.974s-.468.003-.935.31m3.253 1.517c-.446.537-.199 1.295.184 1.464.383.169 1.104-.16 1.202-.852.107-.757-.184-1.464-.184-1.464s-.668.208-1.202.852m3.308 1.947c-.31.139-.365.524-.234.68.131.157.517.169.709-.113.21-.308.234-.68.234-.68s-.337-.054-.709.113m1.393 4.115c-.348.154-.411.583-.266.76.146.175.577.191.793-.122.237-.344.266-.76.266-.76s-.376-.062-.793.122m-6.777-2.938c-1.02.169-1.765 1.278-1.674 1.853.092.574 1.07.918 2.006.226 1.025-.756 1.673-1.852 1.673-1.852s-.784-.43-2.005-.227m-2.372-2.625c-1.185.76-1.45 2.52-.984 3.173.468.653 1.913.543 2.675-.81.833-1.48.983-3.173.983-3.173s-1.254-.1-2.674.81m6.088 5.538c-.697-.023-1.142.638-1.04 1.044.102.407.803.776 1.408.43.662-.38 1.04-1.045 1.04-1.045s-.573-.402-1.408-.429m-10.906-6.234c.216.665.986.86 1.333.625.347-.234.455-1.02-.077-1.473-.58-.496-1.333-.626-1.333-.626s-.181.677.077 1.474m2.56-2.05c-.404.27-.388.825-.165 1.014.222.188.768.111.97-.332.22-.484.165-1.014.165-1.014s-.487.007-.97.331m-5.66 1.674c.384.584 1.179.567 1.451.25.273-.319.17-1.106-.463-1.402-.691-.323-1.45-.25-1.45-.25s.003.702.463 1.402m-6.052 4.898c.415.561 1.207.5 1.462.168.254-.333.107-1.114-.54-1.373-.709-.284-1.463-.168-1.463-.168s.043.7.54 1.373m6.375 2.385c.38.585 1.174.574 1.45.258.274-.317.175-1.104-.455-1.404-.69-.327-1.45-.258-1.45-.258s0 .701.455 1.404m-3.784-.066c.26.648 1.043.79 1.373.533.33-.257.384-1.05-.177-1.465-.614-.454-1.372-.533-1.372-.533s-.135.688.176 1.465m1.943-5.62c.46.636 1.44.636 1.783.299.343-.337.23-1.187-.543-1.518-.846-.362-1.784-.299-1.784-.299s-.009.755.544 1.518m1.338 3.555c1.129 1.07 2.557.903 2.814.238.258-.664-.516-2.178-1.88-2.644-1.494-.511-2.816-.239-2.816-.239s.53 1.363 1.882 2.645m-4.984-2.073c.461.794 1.533.962 1.93.644.396-.318.33-1.291-.493-1.796-.9-.553-1.93-.645-1.93-.645s-.06.846.493 1.797m-2.055 3.705c.773.896 1.888.925 2.147.47.258-.456-.203-1.638-1.213-2.12-1.104-.53-2.146-.47-2.146-.47s.284 1.045 1.212 2.12m13.451-6.99c-.6.355-.622 1.152-.318 1.44.304.289 1.093.223 1.417-.396.355-.677.319-1.44.319-1.44s-.7-.03-1.418.396m7.081 10.938c-.722.562-1.81.293-2.079-.164-.269-.458.137-1.347 1.105-1.493 1.058-.161 2.078.163 2.078.163s-.238.82-1.104 1.494m2.568-5.157c-.91.855-2.662 1.066-3.23.74-.568-.325-.255-1.358 1.173-1.919 1.56-.613 3.23-.741 3.23-.741s-.084.894-1.173 1.92m-2.23-3.308c-.476.09-.679.605-.548.866.13.26.662.405 1.02.077.392-.358.548-.866.548-.866s-.45-.185-1.02-.077"/>
        <path fill="#A5CC1D" d="M44.419 1.776c-1.174-.986-6.455 1.381-6.455 1.381S31.9 0 24.859 0c-7.041 0-11.931 3.157-11.931 3.157S6.864.197 5.69 1.184c-1.173.987 1.181 9.162 1.173 12.234-.025 9.957-7.432 34.73 18.973 34.927 26.405.198 18.346-25.092 17.995-34.927-.104-2.912 1.76-10.655.587-11.642"/>
        <path fill="#A5CC1D" d="M23.17 48.23l-.356-.028c-.412-.036-.817-.078-1.21-.128l-.013-.003c-.39-.05-.768-.108-1.14-.171-.1-.017-.197-.035-.294-.053-.293-.053-.58-.11-.861-.17-.084-.02-.17-.037-.252-.056-.718-.164-1.398-.354-2.042-.568l-.19-.066c-.276-.095-.546-.194-.81-.298l-.133-.053c-.621-.251-1.205-.527-1.755-.826l-.089-.05c-.262-.145-.517-.294-.763-.45l-.027-.016c-.53-.336-1.024-.696-1.484-1.077l-.014-.01C4.017 37.803 5.9 25.388 6.638 17.232l.005-.046c.024-.271.047-.536.068-.798.09-1.087.151-2.089.153-2.97 0-.079-.002-.163-.005-.247 1.609-3.29 4.965-5.555 8.846-5.555 4.59 0 8.449 3.166 9.545 7.45 1.098-4.284 4.955-7.45 9.546-7.45 4.05 0 7.528 2.465 9.045 5.99.043.978.157 2.103.303 3.333l.035.293.031.254c1.116 9.094 3.578 23.448-7.328 28.776l-.042.02c-.228.11-.462.217-.702.32l-.084.036c-.233.098-.472.192-.715.283l-.09.034c-.263.095-.531.186-.807.273l-.026.009c-.58.18-1.188.342-1.828.48l-.115.024c-.268.056-.541.11-.82.159l-.28.046c-.23.038-.463.074-.7.107l-.352.045c-.222.028-.448.053-.677.076-.13.013-.26.026-.39.037-.23.02-.463.038-.699.053l-.401.026c-.254.014-.513.024-.774.032-.122.004-.241.01-.365.012-.385.009-.777.013-1.178.01-.456-.004-.9-.017-1.336-.034l-.381-.019c-.322-.016-.64-.037-.95-.061"/>
        <path fill="#FFF" d="M28.906 16.663c0 3.923 3.153 7.103 7.042 7.103s7.041-3.18 7.041-7.103c0-3.924-3.152-7.104-7.041-7.104-3.889 0-7.042 3.18-7.042 7.104"/>
        <path fill="#000" d="M32.075 16.662c0 2.159 1.734 3.908 3.873 3.908 2.139 0 3.872-1.75 3.872-3.908 0-2.157-1.733-3.906-3.872-3.906-2.14 0-3.873 1.749-3.873 3.906"/>
        <path fill="#A5CC1D" d="M.899 31.569s-2.604 12.304 1.052 13.38c3.133.922 8.096-10.688 8.096-10.688.644-2.199 1.003-5.063-.471-6.983-.516-.667-1.197-1.249-2.012-1.5-.824-.231-1.713-.111-2.498.173-2.279.815-3.523 3.419-4.167 5.618"/>
        <path fill="#A5CC1D" d="M2.31 33.552s2.421 12.342 6.205 11.893c3.242-.385 3.264-13.017 3.264-13.017-.269-2.275-1.06-5.051-3.167-6.237-.735-.41-1.59-.678-2.438-.588-.848.111-1.618.572-2.23 1.142-1.776 1.647-1.902 4.531-1.633 6.807m47.937-1.983c-.643-2.199-1.888-4.803-4.167-5.618-.785-.284-1.673-.404-2.497-.173-.816.251-1.496.833-2.013 1.5-1.473 1.92-1.115 4.784-.471 6.983 0 0 4.964 11.61 8.097 10.688 3.655-1.076 1.051-13.38 1.051-13.38"/>
        <path fill="#A5CC1D" d="M48.837 33.552c.268-2.276.143-5.16-1.634-6.807-.611-.57-1.382-1.03-2.23-1.142-.848-.09-1.702.178-2.438.588-2.107 1.186-2.898 3.962-3.167 6.237 0 0 .022 12.632 3.265 13.017 3.783.449 6.204-11.893 6.204-11.893"/>
        <path fill="#FFF" d="M28.479 49.513c-.08.023-.247-.04-.256-.095-.113-.727-.306-1.47-.268-2.188.027-.5.386-.962.582-1.452.469-1.173 1.29-1.855 2.037-2.64.09-.096.206-.164.272-.283.073-.132.085-.17.141-.32.029-.077.022-.273-.059-.286-.144-.022-.29-.05-.403.017-.394.236-.76.555-1.139.836-.027.02-.054.039-.082.057-.115.076-.253-.06-.18-.177l1.099-1.764c.064-.104.152-.194.19-.313.03-.091.047-.187.061-.284.032-.217-.121-.428-.34-.44-.048-.003-.094.005-.136.03-.24.144-.435.425-.643.658-.408.456-.803.935-1.223 1.37-.108.113-.245.174-.413.255-.09.044-.193-.027-.185-.126.078-.945.148-1.788.22-2.632.017-.211.083-.43.056-.63.038-.272-.106-.592-.24-.592-.095-.031-.475.002-.574.186-.235.437-.332.977-.458 1.487-.126.513-.196 1.05-.325 1.56-.044.171-.196.41-.296.409-.117-.002-.29-.203-.34-.37-.238-.807-.464-1.623-.652-2.453-.105-.463-.275-.732-.642-.644-.382.091-.47.502-.428.928.024.23.049.459.075.688-.07 1.155 1.06 3.682-.852 3.42-.956-.086-1.651-1.83-2.868-1.306-.087 0-.087.348 0 .522.956 1.133 1.738 2.092 2.623 3.187.168.21.336.422.502.636.53.678.827 1.518.777 2.541-.017.354-.095.549-.378.529m-7.728-5.555c1.016.95 3.105 1.123 3.82.724.714-.399.432-1.579-1.233-2.168-1.823-.645-3.82-.725-3.82-.725s.018 1.029 1.233 2.169m8.522-7.697c.396.814 1.426.928 1.831.567.407-.362.407-1.39-.36-1.877-.839-.532-1.832-.566-1.832-.566s-.114.9.36 1.876m5.445-4.316c-.39.257-.379.79-.167.974.212.183.738.113.935-.31.216-.465.167-.974.167-.974s-.468.002-.935.31m3.253 1.516c-.446.538-.199 1.296.184 1.465.383.168 1.104-.16 1.202-.852.107-.758-.184-1.465-.184-1.465s-.668.208-1.202.852m3.308 1.947c-.31.14-.365.524-.234.68.131.157.517.17.709-.112.21-.308.234-.68.234-.68s-.337-.054-.709.112m1.393 4.116c-.348.153-.411.583-.266.759.146.176.577.191.793-.122.237-.343.267-.76.267-.76s-.377-.061-.794.123m-6.777-2.939c-1.02.17-1.765 1.279-1.674 1.854.092.574 1.07.918 2.006.226 1.025-.756 1.673-1.852 1.673-1.852s-.784-.43-2.005-.228m-2.372-2.624c-1.185.759-1.45 2.52-.984 3.173.468.652 1.913.543 2.675-.811.833-1.48.983-3.172.983-3.172s-1.254-.1-2.674.81m6.088 5.538c-.697-.023-1.142.637-1.04 1.044.102.406.803.776 1.408.429.662-.38 1.04-1.045 1.04-1.045s-.573-.401-1.408-.428m-10.906-6.235c.216.665.986.86 1.333.626.347-.234.455-1.021-.077-1.474-.58-.495-1.333-.626-1.333-.626s-.181.677.077 1.474m2.56-2.05c-.404.27-.388.825-.166 1.014.223.189.769.112.97-.331.22-.485.165-1.014.165-1.014s-.486.006-.97.33m-5.658 1.674c.383.584 1.178.568 1.45.25.273-.318.17-1.106-.463-1.401-.691-.323-1.45-.25-1.45-.25s.003.701.463 1.401m-6.052 4.898c.415.561 1.207.5 1.462.168.254-.333.107-1.113-.54-1.373-.709-.284-1.463-.168-1.463-.168s.043.7.54 1.373"/>
        <path fill="#FFF" d="M21.182 40.491c.38.586 1.175.575 1.45.259.274-.317.175-1.105-.455-1.404-.69-.328-1.45-.258-1.45-.258s0 .7.455 1.403m-3.784-.066c.26.649 1.043.791 1.373.534.33-.258.384-1.05-.177-1.465-.614-.455-1.372-.534-1.372-.534s-.135.688.176 1.465m1.943-5.62c.46.637 1.44.636 1.783.3.343-.337.23-1.187-.543-1.519-.846-.362-1.784-.298-1.784-.298s-.009.755.544 1.517m1.338 3.556c1.129 1.07 2.557.903 2.814.238.258-.664-.516-2.178-1.88-2.645-1.494-.511-2.816-.238-2.816-.238s.53 1.363 1.882 2.645m-4.984-2.074c.461.794 1.533.963 1.93.645.396-.318.33-1.292-.493-1.796-.9-.554-1.93-.645-1.93-.645s-.06.845.493 1.796m-2.055 3.705c.773.896 1.888.926 2.147.47.258-.456-.203-1.637-1.213-2.12-1.104-.529-2.146-.47-2.146-.47s.284 1.046 1.212 2.12m13.451-6.99c-.6.356-.622 1.153-.318 1.441.304.288 1.093.222 1.417-.396.355-.678.319-1.441.319-1.441s-.7-.03-1.418.396m7.081 10.938c-.722.563-1.81.294-2.079-.164-.269-.458.137-1.346 1.105-1.493 1.059-.16 2.078.164 2.078.164s-.238.82-1.104 1.493m2.568-5.157c-.91.855-2.662 1.067-3.23.741-.568-.325-.255-1.359 1.173-1.92 1.56-.613 3.23-.74 3.23-.74s-.084.894-1.173 1.919m-2.23-3.308c-.476.09-.679.606-.548.866.13.26.662.405 1.02.078.392-.358.548-.866.548-.866s-.45-.186-1.02-.078M22.847 23.593c-.968-2.106 1.289-3.702 2.817-3.702 1.529 0 3.481 1.512 2.718 3.702-.895 2.568-2.415 4.22-2.767 4.203-.352-.017-1.542-1.535-2.768-4.203"/>
        <path fill="#A5CC1D" d="M25.437 20.934c.021.624.044 1.256.067 1.867-.36.408-1.184 1.351-1.143 1.4.042.05.824-.85 1.15-1.228.021.582.044 1.145.067 1.662-.282.383-1.112 1.526-1.064 1.574.048.048.815-1.025 1.072-1.388.068 1.518.133 2.604.18 2.604.05 0 .086-1.277.113-2.995.266.376 1.014 1.42 1.062 1.373.047-.047-.774-1.178-1.06-1.567.009-.542.016-1.122.022-1.717.293.342 1.147 1.33 1.19 1.277.043-.051-.86-1.08-1.188-1.452l.014-1.65c.283.399.995 1.39 1.04 1.344.048-.047-.736-1.128-1.038-1.54-.058-.107.076.444.076-1.208 0-.098-.597-.173-.655-.077-.026.045.047.504.09 1.55-.332.375-1.229 1.398-1.186 1.45.043.052.9-.938 1.191-1.28z"/>
        <path fill="#FFF" d="M7.26 16.663c0 3.923 3.153 7.103 7.042 7.103 3.89 0 7.042-3.18 7.042-7.103 0-3.924-3.153-7.104-7.042-7.104s-7.041 3.18-7.041 7.104"/>
        <path fill="#000" d="M10.43 16.662c0 2.159 1.734 3.908 3.872 3.908 2.139 0 3.873-1.75 3.873-3.908 0-2.157-1.734-3.906-3.873-3.906-2.138 0-3.872 1.749-3.872 3.906"/>
        <path fill="#FFF" d="M25.198 15.453l-.02.028-.018.03c-.139.25-.4.406-.682.406h-9.332l5.193-7.7 11.013-1.113c.02.048.038.097.055.143l-6.209 8.206zm6.69-7.785c-.007-.01-.012-.02-.017-.03-.073-.137-.133-.281-.19-.43-.07-.183-.14-.355-.226-.53-.074-.153-.12-.37-.225-.501-.014-.017-.026-.035-.037-.053l-11.4 1.151-5.665 8.401-.025.037-.018.042c-.112.254-.09.546.06.78.148.233.4.373.674.373h9.659c.62 0 1.195-.335 1.51-.876l6.102-8.064c-.078-.095-.145-.195-.203-.3z"/>
        <path fill="#FFF" d="M24.631 16.309L18.093 5.252l.834-.511 6.537 11.057zM36.548 16.412c0 .547-.435.99-.971.99-.537 0-.972-.443-.972-.99 0-.546.435-.99.972-.99.536 0 .97.444.97.99M14.33 22.19c-3.09 0-5.595-2.587-5.595-5.778 0-3.191 2.505-5.778 5.595-5.778s5.596 2.587 5.596 5.778c0 3.191-2.505 5.778-5.596 5.778m0-12.618c-3.708 0-6.714 3.062-6.714 6.84s3.006 6.84 6.714 6.84c3.709 0 6.715-3.062 6.715-6.84s-3.006-6.84-6.715-6.84"/>
        <path fill="#FFF" d="M14.33 10.667c-3.068 0-5.564 2.577-5.564 5.745s2.496 5.745 5.563 5.745c3.068 0 5.564-2.577 5.564-5.745s-2.496-5.745-5.564-5.745m0 11.556c-3.103 0-5.628-2.607-5.628-5.811 0-3.204 2.525-5.811 5.628-5.811 3.104 0 5.629 2.607 5.629 5.811 0 3.204-2.525 5.811-5.629 5.811m0-12.618c-3.684 0-6.682 3.054-6.682 6.807 0 3.753 2.998 6.807 6.682 6.807 3.685 0 6.683-3.054 6.683-6.807 0-3.753-2.998-6.807-6.683-6.807m0 13.68c-3.72 0-6.747-3.083-6.747-6.873s3.027-6.873 6.747-6.873c3.721 0 6.748 3.083 6.748 6.873s-3.027 6.873-6.748 6.873m5.382-18.958h1.597c.54 0 .976.385.976.86 0 .085-.581.045-.776.049-1.304.023-5.196.43-5.196.43v-.889c0-.249.229-.45.512-.45h2.887zM35.127 16.6L30.17 4.3c-.186-.45-.14-.962.124-1.37.264-.409.709-.654 1.19-.656l.378-.002h.704v.991h-.702l-.377.002c-.156 0-.295.077-.38.21-.087.133-.101.293-.04.44l.002.006 4.957 12.303-.9.376z"/>
        <path fill="#FFF" d="M33.449 5.492h-.317c-.231 0-.419-.188-.419-.42v-.151c0-.232.188-.42.42-.42h.316c.334 0 .607-.278.607-.619 0-.34-.273-.618-.607-.618h-.923l.002-.992h.921c.87 0 1.58.723 1.58 1.61 0 .888-.71 1.61-1.58 1.61m2.128 16.698c-3.09 0-5.596-2.587-5.596-5.778 0-3.191 2.505-5.778 5.596-5.778 3.09 0 5.595 2.587 5.595 5.778 0 3.191-2.505 5.778-5.595 5.778m0-12.618c-3.709 0-6.715 3.062-6.715 6.84s3.006 6.84 6.715 6.84c3.708 0 6.715-3.062 6.715-6.84s-3.007-6.84-6.715-6.84"/>
        <path fill="#FFF" d="M35.577 10.667c-3.068 0-5.564 2.577-5.564 5.745s2.496 5.745 5.564 5.745c3.067 0 5.563-2.577 5.563-5.745s-2.496-5.745-5.563-5.745m0 11.556c-3.104 0-5.628-2.607-5.628-5.811 0-3.204 2.524-5.811 5.628-5.811 3.103 0 5.628 2.607 5.628 5.811 0 3.204-2.525 5.811-5.628 5.811m0-12.618c-3.685 0-6.683 3.054-6.683 6.807 0 3.753 2.998 6.807 6.683 6.807 3.684 0 6.682-3.054 6.682-6.807 0-3.753-2.998-6.807-6.682-6.807m0 13.68c-3.72 0-6.748-3.083-6.748-6.873s3.027-6.873 6.748-6.873c3.72 0 6.747 3.083 6.747 6.873s-3.027 6.873-6.747 6.873m-8.859-6.873c0 .844-.671 1.528-1.5 1.528-.828 0-1.499-.684-1.499-1.528s.671-1.528 1.5-1.528c.828 0 1.5.684 1.5 1.528m-11.525-.044c0 .546-.435.989-.971.989-.537 0-.971-.443-.971-.99 0-.546.434-.989.97-.989.537 0 .972.443.972.99"/>
    </g>
</svg>
