<svg xmlns="http://www.w3.org/2000/svg" width="150" height="27" viewBox="0 0 150 27">
  <g fill="#AFA5A5" fill-rule="evenodd">
    <path fill-rule="nonzero" d="M15.6057386 16.4156805C15.0478215 16.0162722 14.4102019 15.6887574 13.6849097 15.4491124 12.9675877 15.2014793 12.2263549 15.0017751 11.477152 14.8260355 10.7438895 14.658284 10.0265675 14.4985207 9.32518597 14.3467456 8.61583422 14.2029586 7.99415515 14.0352071 7.44420829 13.8514793 6.89426142 13.6677515 6.44792774 13.4281065 6.11317747 13.1405325 5.77045696 12.8449704 5.60308183 12.4695266 5.60308183 12.006213 5.60308183 11.6147929 5.69872476 11.3032544 5.89798087 11.0715976 6.08926674 10.8399408 6.32837407 10.6642012 6.60733262 10.5443787 6.88629118 10.4245562 7.19713071 10.3446746 7.53985122 10.3047337 7.88257173 10.2647929 8.19341126 10.2488166 8.48831031 10.2488166 9.41285866 10.2488166 10.2178533 10.4245562 10.8953241 10.7760355 11.4532412 11.0636095 11.803932 11.5668639 11.9553666 12.2857988 12.0191286 12.5893491 12.2821467 12.8050296 12.5929862 12.8050296L16.2114772 12.8050296C16.6418704 12.8050296 16.9287991 12.4535503 16.857067 12.0301775 16.7136026 11.1994083 16.4426142 10.4884615 16.0600425 9.89733728 15.5579171 9.13047337 14.936238 8.51538462 14.1790648 8.05207101 13.4218916 7.5887574 12.5690755 7.2612426 11.6046759 7.06153846 10.6402763 6.86982249 9.65196599 6.76597633 8.63177471 6.76597633 7.61158342 6.76597633 6.60733262 6.85384615 5.63496281 7.03757396 4.66259299 7.22130178 3.7858661 7.5408284 3.00478215 7.98816568 2.22369819 8.44349112 1.60201913 9.05857988 1.12380446 9.83343195.645589798 10.6162722.41445271 11.6147929.41445271 12.8369822.41445271 13.6677515.581827843 14.3707101.924548353 14.9378698 1.26726886 15.5130178 1.71360255 15.9843195 2.2794899 16.3677515 2.83740701 16.7431953 3.47502657 17.0547337 4.20031881 17.2863905 4.91764081 17.5180473 5.65090329 17.7177515 6.40807651 17.8934911 8.25717322 18.2849112 9.69978746 18.6763314 10.7359192 19.0677515 11.772051 19.4591716 12.2901169 20.0423077 12.2901169 20.8251479 12.2901169 21.2884615 12.1785335 21.6718935 11.9633369 21.9754438 11.7481403 22.2789941 11.4691817 22.5266272 11.1424017 22.710355 10.8156217 22.8940828 10.4489904 23.0298817 10.0504782 23.1097633 9.65196599 23.1976331 9.26939426 23.237574 8.90276302 23.237574 8.39266738 23.237574 7.89851222 23.1736686 7.42029756 23.0538462 6.94208289 22.9340237 6.52763018 22.7423077 6.16099894 22.4866864 5.79436769 22.2310651 5.49946865 21.9035503 5.26833156 21.4961538 5.11689692 21.2325444 5.02125399 20.9449704 4.96546227 20.6174556 4.90967056 20.297929 4.6466525 20.0502959 4.31987248 20.0502959L.701381509 20.0502959C.294899044 20.0502959.98746616e-15 20.3857988.0478214665 20.7931953.159404888 21.7357988.430393199 22.5505917.844845909 23.2215976 1.37088204 24.060355 2.04038257 24.7393491 2.8533475 25.2505917 3.66631243 25.7618343 4.59883103 26.1292899 5.65090329 26.3449704 6.69500531 26.5606509 7.77098831 26.6724852 8.8629118 26.6724852 9.93092455 26.6724852 10.9829968 26.5686391 12.0191286 26.3609467 13.0552604 26.1532544 13.9718385 25.793787 14.7768332 25.2825444 15.5818278 24.7713018 16.2274176 24.0923077 16.729543 23.2535503 17.2316684 22.4147929 17.478746 21.3683432 17.478746 20.1221893 17.478746 19.2434911 17.3113709 18.5085799 16.9686504 17.9094675 16.6179596 17.3183432 16.1636557 16.8150888 15.6057386 16.4156805zM36.782678 9.49792899C35.9298618 8.6352071 34.9017003 7.96420118 33.6981934 7.48491124 32.4946865 7.0056213 31.1477152 6.7739645 29.6652497 6.7739645 28.1827843 6.7739645 26.8437832 7.01360947 25.6482465 7.48491124 24.4527099 7.96420118 23.4325186 8.6352071 22.5797024 9.49792899 21.7268863 10.3606509 21.0733262 11.4150888 20.6110521 12.6452663 20.1487779 13.8754438 19.9176408 15.2494083 19.9176408 16.7591716 19.9176408 18.2689349 20.1487779 19.6349112 20.6110521 20.8571006 21.0733262 22.0792899 21.7268863 23.1177515 22.5797024 23.9884615 23.4325186 24.8511834 24.4527099 25.5221893 25.6482465 25.985503 26.8437832 26.4488166 28.1827843 26.6804734 29.6652497 26.6804734 31.1477152 26.6804734 32.4946865 26.4488166 33.6981934 25.985503 34.9017003 25.5221893 35.9298618 24.8591716 36.782678 23.9884615 37.6354942 23.1257396 38.2890542 22.0792899 38.7513284 20.8571006 39.2136026 19.6349112 39.4447396 18.2689349 39.4447396 16.7591716 39.4447396 15.2494083 39.2136026 13.8754438 38.7513284 12.6452663 38.2970244 11.4150888 37.6354942 10.3606509 36.782678 9.49792899zM34.0488842 18.9798817C33.9054198 19.6988166 33.6503719 20.345858 33.2996812 20.9210059 32.9489904 21.4961538 32.4707758 21.9514793 31.8730074 22.2949704 31.2752391 22.6384615 30.5419766 22.806213 29.6652497 22.806213 28.7885228 22.806213 28.0552604 22.6384615 27.4734325 22.2949704 26.8916047 21.9514793 26.4213603 21.4961538 26.0706695 20.9210059 25.7199787 20.345858 25.4649309 19.6988166 25.3214665 18.9798817 25.1780021 18.2609467 25.1062699 17.5260355 25.1062699 16.7671598 25.1062699 16.008284 25.1780021 15.2653846 25.3214665 14.5384615 25.4649309 13.8035503 25.7199787 13.1565089 26.0706695 12.5973373 26.4213603 12.0381657 26.8916047 11.5748521 27.4734325 11.2233728 28.0552604 10.8718935 28.7885228 10.6961538 29.6652497 10.6961538 30.5419766 10.6961538 31.2752391 10.8718935 31.8730074 11.2233728 32.4707758 11.5748521 32.9410202 12.0381657 33.2996812 12.5973373 33.6503719 13.1565089 33.9054198 13.8035503 34.0488842 14.5384615 34.1923486 15.2733728 34.2640808 16.0162722 34.2640808 16.7671598 34.2640808 17.5180473 34.1923486 18.2609467 34.0488842 18.9798817zM60.0797024 18.9559172L56.3894793 18.9559172C56.0945802 18.9559172 55.8235919 19.1556213 55.75983 19.4431953 55.5526036 20.3857988 55.1620616 21.1606509 54.588204 21.7517751 53.9187035 22.4467456 52.9622742 22.7982249 51.718916 22.7982249 50.9139214 22.7982249 50.2364506 22.614497 49.6705632 22.2470414 49.1126461 21.8795858 48.6663124 21.408284 48.3395324 20.8411243 48.0127524 20.2659763 47.7736451 19.6269231 47.6301807 18.9159763 47.4867163 18.2050296 47.4149841 17.5100592 47.4149841 16.8310651 47.4149841 16.1201183 47.4867163 15.4091716 47.6301807 14.6902367 47.7736451 13.9713018 48.0286929 13.308284 48.3793836 12.7171598 48.7300744 12.1180473 49.1923486 11.6307692 49.7502657 11.2553254 50.3081828 10.8798817 51.001594 10.6881657 51.8304995 10.6881657 53.8788523 10.6881657 55.1222104 11.6147929 55.5685441 13.4680473 55.6402763 13.7556213 55.9032944 13.9473373 56.1981934 13.9473373L60.0159405 13.9473373C60.4144527 13.9473373 60.7252922 13.5878698 60.6615303 13.1884615 60.5340064 12.2857988 60.2630181 11.4869822 59.8645058 10.7840237 59.3544102 9.89733728 58.6928799 9.1464497 57.8719447 8.55532544 57.0589798 7.95621302 56.1344315 7.50887574 55.0982997 7.22130178 54.0621679 6.92573964 52.9861849 6.78195266 51.8703507 6.78195266 50.3400638 6.78195266 48.9691817 7.03757396 47.7816153 7.54881657 46.5860786 8.06005917 45.5818278 8.77100592 44.7529224 9.68964497 43.924017 10.608284 43.2943677 11.6866864 42.8719447 12.9488166 42.4495218 14.2029586 42.2343252 15.5689349 42.2343252 17.0307692 42.2343252 18.4446746 42.4654623 19.7467456 42.9277365 20.9289941 43.3900106 22.1112426 44.0356004 23.1337278 44.8645058 23.9884615 45.6934113 24.8431953 46.6976621 25.506213 47.8772582 25.985503 49.0568544 26.4647929 50.3560043 26.6964497 51.7667375 26.6964497 54.2773645 26.6964497 56.3336876 26.0414201 57.9357067 24.7233728 59.3703507 23.5491124 60.294899 21.9035503 60.7252922 19.7786982 60.7970244 19.3473373 60.4941552 18.9559172 60.0797024 18.9559172zM66.3682253.0718934911L64.5669501.0718934911C64.2082891.0718934911 63.91339.367455621 63.91339.726923077L63.91339 3.69053254C63.91339 4.05 64.2082891 4.34556213 64.5669501 4.34556213L68.4404888 4.34556213C68.7991498 4.34556213 69.0940489 4.05 69.0940489 3.69053254L69.0940489 2.81183432C69.1020191 1.30207101 67.8746015.0718934911 66.3682253.0718934911zM69.1020191 9.88136095C69.1020191 8.44349112 67.9383634 7.27721893 66.5037194 7.27721893L64.5669501 7.27721893C64.2082891 7.27721893 63.91339 7.57278107 63.91339 7.93224852L63.91339 25.5461538C63.91339 25.9056213 64.2082891 26.2011834 64.5669501 26.2011834L68.4484591 26.2011834C68.8071201 26.2011834 69.1020191 25.9056213 69.1020191 25.5461538L69.1020191 9.88136095 69.1020191 9.88136095zM87.3937301 7.75650888C86.5887354 7.36508876 85.7040383 7.10147929 84.7316684 6.97366864 83.7592986 6.83786982 82.794899 6.7739645 81.84644 6.7739645 80.8023379 6.7739645 79.7582359 6.87781065 78.7221041 7.08550296 77.6859724 7.29319527 76.7534538 7.63668639 75.9325186 8.13195266 75.1036132 8.61923077 74.4261424 9.26627219 73.8841658 10.0730769 73.4617428 10.704142 73.1907545 11.4630178 73.0552604 12.341716 72.9914984 12.7650888 73.2784272 13.1085799 73.7008502 13.1085799L77.5982997 13.1085799C77.8852285 13.1085799 78.1801275 12.8769231 78.2359192 12.5973373 78.3873539 11.8384615 78.7061637 11.2792899 79.1843783 10.9118343 79.7662062 10.4724852 80.5712009 10.2568047 81.5913921 10.2568047 82.0536663 10.2568047 82.4840595 10.2887574 82.890542 10.3446746 83.2890542 10.4085799 83.6477152 10.5284024 83.9505845 10.7121302 84.2534538 10.895858 84.5005313 11.1514793 84.683847 11.4789941 84.8671626 11.8065089 84.9548353 12.2538462 84.9548353 12.8130178 84.978746 13.3482249 84.8193411 13.7556213 84.4766206 14.0352071 84.1339001 14.3147929 83.6716259 14.5304734 83.0897981 14.6742604 82.5079702 14.8180473 81.8384697 14.9298817 81.0812965 15.0017751 80.3241233 15.0736686 79.5589798 15.1695266 78.7778959 15.2973373 77.9968119 15.4171598 77.2236982 15.5849112 76.4585547 15.7926036 75.6934113 16.0002959 75.0079702 16.3118343 74.4102019 16.7272189 73.8124336 17.1426036 73.3262487 17.693787 72.9516472 18.3887574 72.5770457 19.0837278 72.3857598 19.9704142 72.3857598 21.0408284 72.3857598 22.0153846 72.553135 22.8621302 72.879915 23.5650888 73.206695 24.2760355 73.6609989 24.8591716 74.250797 25.3224852 74.5456961 25.554142 75.2869288 26.0174556 76.2274176 26.3769231 77.183847 26.7523669 78.6742827 26.9201183 79.1206164 26.9201183 79.5111583 26.9440828 80.1806589 26.9840237 80.5791711 26.9840237 81.7587673 26.9840237 82.9144527 26.8642012 84.0382572 26.6325444 85.1700319 26.3928994 86.1663124 26.0014793 87.0510096 25.4502959 87.9277365 24.8991124 88.6530287 24.1721893 89.2109458 23.2615385 89.7768332 22.3508876 90.0797024 21.216568 90.1354942 19.8505917L90.1354942 12.15C90.1354942 10.9997041 89.8804463 10.0810651 89.3703507 9.38609467 88.8522848 8.69112426 88.1987248 8.14792899 87.3937301 7.75650888zM78.522848 22.7502959C78.227949 22.566568 77.9968119 22.3189349 77.8294368 21.9994083 77.6620616 21.6798817 77.5743889 21.2884615 77.5743889 20.8251479 77.5743889 20.3378698 77.6620616 19.9384615 77.8294368 19.6189349 77.9968119 19.2994083 78.227949 19.043787 78.5069075 18.8360947 78.7858661 18.6284024 79.1126461 18.4606509 79.4952179 18.3408284 79.8698193 18.2210059 80.2523911 18.1251479 80.642933 18.0452663 81.0573858 17.9733728 81.4718385 17.9094675 81.8862912 17.8615385 82.3007439 17.8136095 82.6992561 17.7497041 83.0738576 17.6778107 83.4484591 17.6059172 83.8071201 17.5100592 84.1339001 17.406213 84.2056323 17.3822485 84.2693943 17.358284 84.3331562 17.3263314 84.6280553 17.1985207 84.9548353 17.4301775 84.9548353 17.7497041L84.9548353 18.8840237C84.9548353 19.091716 84.9309245 19.3713018 84.8990436 19.6828402 84.8512221 20.0742604 84.7555792 20.5136095 84.651966 20.8730769 84.5722635 21.0807692 84.4845909 21.2884615 84.3650372 21.4961538 84.3092455 21.5920118 84.2454835 21.6878698 84.1737513 21.7837278 84.1498406 21.8076923 84.1339001 21.839645 84.1179596 21.8636095 84.0223167 21.983432 83.902763 22.0952663 83.7991498 22.2150888 83.7752391 22.2390533 83.7513284 22.2630178 83.7274176 22.2789941 83.3049947 22.6304734 82.7151966 22.95 82.0935175 23.1097633 81.7029756 23.189645 81.2566419 23.237574 80.7465462 23.237574 80.3320935 23.237574 79.9335813 23.1976331 79.5430393 23.1257396 79.1524973 23.0538462 78.8097768 22.9260355 78.522848 22.7502959zM117.736451 7.75650888C116.931456 7.36508876 116.046759 7.10147929 115.074389 6.97366864 114.102019 6.83786982 113.13762 6.7739645 112.18916 6.7739645 111.145058 6.7739645 110.100956 6.87781065 109.064825 7.08550296 108.028693 7.29319527 107.096174 7.63668639 106.275239 8.13195266 105.446334 8.61923077 104.768863 9.26627219 104.226886 10.0730769 103.804463 10.704142 103.533475 11.4630178 103.397981 12.341716 103.334219 12.7650888 103.621148 13.1085799 104.043571 13.1085799L107.94102 13.1085799C108.227949 13.1085799 108.522848 12.8769231 108.57864 12.5973373 108.730074 11.8384615 109.048884 11.2792899 109.527099 10.9118343 110.108927 10.4724852 110.913921 10.2568047 111.934113 10.2568047 112.396387 10.2568047 112.82678 10.2887574 113.233262 10.3446746 113.631775 10.4085799 113.990436 10.5284024 114.293305 10.7121302 114.596174 10.895858 114.843252 11.1514793 115.026567 11.4789941 115.209883 11.8065089 115.297556 12.2538462 115.297556 12.8130178 115.321467 13.3482249 115.162062 13.7556213 114.819341 14.0352071 114.476621 14.3147929 114.014346 14.5304734 113.432519 14.6742604 112.850691 14.8180473 112.18119 14.9298817 111.424017 15.0017751 110.666844 15.0736686 109.9017 15.1695266 109.120616 15.2973373 108.339532 15.4171598 107.566419 15.5849112 106.801275 15.7926036 106.036132 16.0002959 105.350691 16.3118343 104.752922 16.7272189 104.155154 17.1426036 103.668969 17.693787 103.294368 18.3887574 102.919766 19.0837278 102.72848 19.9704142 102.72848 21.0408284 102.72848 22.0153846 102.895855 22.8621302 103.222635 23.5650888 103.549416 24.2760355 104.003719 24.8591716 104.593518 25.3224852 104.888417 25.554142 105.629649 26.0174556 106.570138 26.3769231 107.526567 26.7523669 109.017003 26.9201183 109.463337 26.9201183 109.853879 26.9440828 110.523379 26.9840237 110.921892 26.9840237 112.101488 26.9840237 113.257173 26.8642012 114.380978 26.6325444 115.512752 26.3928994 116.509033 26.0014793 117.39373 25.4502959 118.270457 24.8991124 118.995749 24.1721893 119.553666 23.2615385 120.119554 22.3508876 120.422423 21.216568 120.478215 19.8505917L120.478215 12.15C120.478215 10.9997041 120.223167 10.0810651 119.713071 9.38609467 119.195005 8.69112426 118.541445 8.14792899 117.736451 7.75650888zM108.865569 22.7502959C108.57067 22.566568 108.339532 22.3189349 108.172157 21.9994083 108.004782 21.6798817 107.917109 21.2884615 107.917109 20.8251479 107.917109 20.3378698 108.004782 19.9384615 108.172157 19.6189349 108.339532 19.2994083 108.57067 19.043787 108.849628 18.8360947 109.128587 18.6284024 109.455367 18.4606509 109.837938 18.3408284 110.21254 18.2210059 110.595112 18.1251479 110.985654 18.0452663 111.400106 17.9733728 111.814559 17.9094675 112.229012 17.8615385 112.643464 17.8136095 113.041977 17.7497041 113.416578 17.6778107 113.79118 17.6059172 114.149841 17.5100592 114.476621 17.406213 114.548353 17.3822485 114.612115 17.358284 114.675877 17.3263314 114.970776 17.1985207 115.297556 17.4301775 115.297556 17.7497041L115.297556 18.8840237C115.297556 19.091716 115.273645 19.3713018 115.241764 19.6828402 115.193943 20.0742604 115.0983 20.5136095 114.994687 20.8730769 114.914984 21.0807692 114.827311 21.2884615 114.707758 21.4961538 114.651966 21.5920118 114.588204 21.6878698 114.516472 21.7837278 114.492561 21.8076923 114.476621 21.839645 114.46068 21.8636095 114.365037 21.983432 114.245484 22.0952663 114.14187 22.2150888 114.11796 22.2390533 114.094049 22.2630178 114.070138 22.2789941 113.647715 22.6304734 113.057917 22.9420118 112.436238 23.1097633 112.045696 23.189645 111.599362 23.237574 111.089267 23.237574 110.674814 23.237574 110.276302 23.1976331 109.88576 23.1257396 109.495218 23.0538462 109.160468 22.9260355 108.865569 22.7502959zM96.3283741.0718934911L94.9256111.0718934911C94.5749203.0718934911 94.2959617.35147929 94.2959617.70295858L94.2959617 25.5701183C94.2959617 25.9215976 94.5749203 26.2011834 94.9256111 26.2011834L98.8469713 26.2011834C99.1976621 26.2011834 99.4766206 25.9215976 99.4766206 25.5701183L99.4766206 3.2352071C99.4845909 1.48579882 98.0738576.0718934911 96.3283741.0718934911zM143.328905 19.3952663C143.47237 18.5804734 143.552072 17.693787 143.552072 16.7272189 143.552072 14.993787 143.320935 13.5 142.858661 12.245858 142.396387 10.991716 141.790648 9.9612426 141.049416 9.15443787 140.308183 8.34763314 139.471307 7.74852071 138.546759 7.36508876 137.62221 6.97366864 136.681722 6.78195266 135.733262 6.78195266 134.561637 6.78195266 133.437832 7.0056213 132.353879 7.46094675 131.269926 7.91627219 130.409139 8.62721893 129.77949 9.60177515L129.707758 9.60177515 129.707758.726923077C129.707758.367455621 129.412859.0718934911 129.054198.0718934911L125.172689.0718934911C124.814028.0718934911 124.519129.367455621 124.519129.726923077L124.519129 9.94526627 124.519129 17.7097633C124.519129 19.7946746 125.108927 21.1526627 125.108927 21.1526627 125.571201 22.3349112 126.216791 23.3573964 127.045696 24.2121302 127.874601 25.0668639 128.878852 25.7298817 130.058448 26.2091716 131.238045 26.6884615 132.537194 26.9201183 133.947928 26.9201183 133.971838 26.9201183 134.003719 26.9121302 134.0356 26.9121302L134.0356 26.9201183C135.446334 26.9201183 136.745484 26.6804734 137.92508 26.2091716 139.104676 25.7298817 140.108927 25.0668639 140.937832 24.2121302 141.718916 23.4053254 142.332625 22.4467456 142.786929 21.3443787 142.81881 21.2964497 142.83475 21.2565089 142.850691 21.216568 142.858661 21.2005917 142.858661 21.1766272 142.866631 21.1606509L142.866631 21.1606509C142.882572 21.1526627 143.16153 20.489645 143.328905 19.3952663zM133.947928 22.7982249C133.190755 22.7982249 132.537194 22.6304734 131.979277 22.3029586 131.42136 21.9754438 130.959086 21.5281065 130.592455 20.9689349 130.225824 20.4097633 129.962806 19.7627219 129.78746 19.0278107 129.620085 18.2928994 129.532412 17.5420118 129.532412 16.7591716 129.532412 15.9523669 129.620085 15.185503 129.78746 14.4505917 129.954835 13.7156805 130.225824 13.0686391 130.592455 12.5094675 130.959086 11.9502959 131.42136 11.5029586 131.979277 11.1754438 132.537194 10.847929 133.198725 10.6801775 133.947928 10.6801775 134.729012 10.6801775 135.390542 10.847929 135.940489 11.1754438 136.490436 11.5029586 136.94474 11.9502959 137.311371 12.5094675 137.678002 13.0686391 137.94102 13.7156805 138.116366 14.4505917 138.283741 15.185503 138.371413 15.9523669 138.371413 16.7591716 138.371413 17.5420118 138.283741 18.2928994 138.116366 19.0278107 137.94899 19.7627219 137.678002 20.4097633 137.311371 20.9689349 136.94474 21.5281065 136.490436 21.9754438 135.940489 22.3029586 135.390542 22.6384615 134.729012 22.7982249 133.947928 22.7982249z"/>
    <text font-family="Helvetica" font-size="4.528">
      <tspan x="145.65" y="11.524">R</tspan>
    </text>
    <path fill-rule="nonzero" d="M146.963337,13.308284 C145.305526,13.308284 143.958555,11.958284 143.958555,10.2967456 C143.958555,8.6352071 145.305526,7.2852071 146.963337,7.2852071 C148.621148,7.2852071 149.968119,8.6352071 149.968119,10.2967456 C149.968119,11.958284 148.621148,13.308284 146.963337,13.308284 Z M146.963337,7.78846154 C145.584485,7.78846154 144.46068,8.9147929 144.46068,10.2967456 C144.46068,11.6786982 145.584485,12.8050296 146.963337,12.8050296 C148.342189,12.8050296 149.465994,11.6786982 149.465994,10.2967456 C149.465994,8.9147929 148.350159,7.78846154 146.963337,7.78846154 Z"/>
  </g>
</svg>
